<svg width="108" height="42" viewBox="0 0 108 42" fill="none" xmlns="http://www.w3.org/2000/svg">
<path d="M78.8261 10.174C80.3869 10.174 81.6522 8.65563 81.6522 6.78266C81.6522 4.9097 80.3869 3.39136 78.8261 3.39136C77.2653 3.39136 76 4.9097 76 6.78266C76 8.65563 77.2653 10.174 78.8261 10.174Z" fill="black"/>
<path d="M85.6089 7.91304C87.794 7.91304 89.5654 6.14165 89.5654 3.95652C89.5654 1.77139 87.794 0 85.6089 0C83.4237 0 81.6523 1.77139 81.6523 3.95652C81.6523 6.14165 83.4237 7.91304 85.6089 7.91304Z" fill="black"/>
<path d="M92.3925 7.91304C93.9533 7.91304 95.2186 6.14165 95.2186 3.95652C95.2186 1.77139 93.9533 0 92.3925 0C90.8317 0 89.5664 1.77139 89.5664 3.95652C89.5664 6.14165 90.8317 7.91304 92.3925 7.91304Z" fill="black"/>
<path d="M98.0448 7.91304C99.6056 7.91304 100.871 6.14165 100.871 3.95652C100.871 1.77139 99.6056 0 98.0448 0C96.484 0 95.2188 1.77139 95.2188 3.95652C95.2188 6.14165 96.484 7.91304 98.0448 7.91304Z" fill="black"/>
<path d="M85.6089 26.0001C87.794 26.0001 89.5654 24.4818 89.5654 22.6088C89.5654 20.7359 87.794 19.2175 85.6089 19.2175C83.4237 19.2175 81.6523 20.7359 81.6523 22.6088C81.6523 24.4818 83.4237 26.0001 85.6089 26.0001Z" fill="black"/>
<path d="M92.3925 26.0001C93.9533 26.0001 95.2186 24.4818 95.2186 22.6088C95.2186 20.7359 93.9533 19.2175 92.3925 19.2175C90.8317 19.2175 89.5664 20.7359 89.5664 22.6088C89.5664 24.4818 90.8317 26.0001 92.3925 26.0001Z" fill="black"/>
<path d="M98.0448 26.0001C99.6056 26.0001 100.871 24.4818 100.871 22.6088C100.871 20.7359 99.6056 19.2175 98.0448 19.2175C96.484 19.2175 95.2188 20.7359 95.2188 22.6088C95.2188 24.4818 96.484 26.0001 98.0448 26.0001Z" fill="black"/>
<path d="M78.8261 16.9567C80.3869 16.9567 81.6522 15.4383 81.6522 13.5654C81.6522 11.6924 80.3869 10.1741 78.8261 10.1741C77.2653 10.1741 76 11.6924 76 13.5654C76 15.4383 77.2653 16.9567 78.8261 16.9567Z" fill="black"/>
<path d="M78.8261 22.6087C80.3869 22.6087 81.6522 21.3434 81.6522 19.7826C81.6522 18.2218 80.3869 16.9565 78.8261 16.9565C77.2653 16.9565 76 18.2218 76 19.7826C76 21.3434 77.2653 22.6087 78.8261 22.6087Z" fill="black"/>
<path d="M78.8261 29.3915C80.3869 29.3915 81.6522 27.8732 81.6522 26.0002C81.6522 24.1272 80.3869 22.6089 78.8261 22.6089C77.2653 22.6089 76 24.1272 76 26.0002C76 27.8732 77.2653 29.3915 78.8261 29.3915Z" fill="black"/>
<path d="M78.8261 36.174C80.3869 36.174 81.6522 34.6556 81.6522 32.7827C81.6522 30.9097 80.3869 29.3914 78.8261 29.3914C77.2653 29.3914 76 30.9097 76 32.7827C76 34.6556 77.2653 36.174 78.8261 36.174Z" fill="black"/>
<path d="M104.262 10.174C106.135 10.174 107.654 8.65563 107.654 6.78266C107.654 4.9097 106.135 3.39136 104.262 3.39136C102.389 3.39136 100.871 4.9097 100.871 6.78266C100.871 8.65563 102.389 10.174 104.262 10.174Z" fill="black"/>
<path d="M104.262 16.9567C106.135 16.9567 107.654 15.4383 107.654 13.5654C107.654 11.6924 106.135 10.1741 104.262 10.1741C102.389 10.1741 100.871 11.6924 100.871 13.5654C100.871 15.4383 102.389 16.9567 104.262 16.9567Z" fill="black"/>
<path d="M104.262 22.6087C106.135 22.6087 107.654 21.3434 107.654 19.7826C107.654 18.2218 106.135 16.9565 104.262 16.9565C102.389 16.9565 100.871 18.2218 100.871 19.7826C100.871 21.3434 102.389 22.6087 104.262 22.6087Z" fill="black"/>
<path d="M104.262 29.3915C106.135 29.3915 107.654 27.8732 107.654 26.0002C107.654 24.1272 106.135 22.6089 104.262 22.6089C102.389 22.6089 100.871 24.1272 100.871 26.0002C100.871 27.8732 102.389 29.3915 104.262 29.3915Z" fill="black"/>
<path d="M104.262 36.174C106.135 36.174 107.654 34.6556 107.654 32.7827C107.654 30.9097 106.135 29.3914 104.262 29.3914C102.389 29.3914 100.871 30.9097 100.871 32.7827C100.871 34.6556 102.389 36.174 104.262 36.174Z" fill="black"/>
<path d="M78.8261 41.8262C80.3869 41.8262 81.6522 40.561 81.6522 39.0002C81.6522 37.4394 80.3869 36.1741 78.8261 36.1741C77.2653 36.1741 76 37.4394 76 39.0002C76 40.561 77.2653 41.8262 78.8261 41.8262Z" fill="black"/>
<path d="M104.262 41.8262C106.135 41.8262 107.654 40.561 107.654 39.0002C107.654 37.4394 106.135 36.1741 104.262 36.1741C102.389 36.1741 100.871 37.4394 100.871 39.0002C100.871 40.561 102.389 41.8262 104.262 41.8262Z" fill="black"/>
<path d="M16.3925 28.2608C17.9533 28.2608 19.2186 26.9955 19.2186 25.4347C19.2186 23.8739 17.9533 22.6086 16.3925 22.6086C14.8317 22.6086 13.5664 23.8739 13.5664 25.4347C13.5664 26.9955 14.8317 28.2608 16.3925 28.2608Z" fill="black"/>
<path d="M16.3925 35.0436C17.9533 35.0436 19.2186 33.5253 19.2186 31.6523C19.2186 29.7793 17.9533 28.261 16.3925 28.261C14.8317 28.261 13.5664 29.7793 13.5664 31.6523C13.5664 33.5253 14.8317 35.0436 16.3925 35.0436Z" fill="black"/>
<path d="M16.3925 41.8261C17.9533 41.8261 19.2186 40.3077 19.2186 38.4348C19.2186 36.5618 17.9533 35.0435 16.3925 35.0435C14.8317 35.0435 13.5664 36.5618 13.5664 38.4348C13.5664 40.3077 14.8317 41.8261 16.3925 41.8261Z" fill="black"/>
<path d="M2.82609 5.65217C4.38689 5.65217 5.65217 4.38689 5.65217 2.82609C5.65217 1.26528 4.38689 0 2.82609 0C1.26528 0 0 1.26528 0 2.82609C0 4.38689 1.26528 5.65217 2.82609 5.65217Z" fill="black"/>
<path d="M9.60887 22.6088C11.794 22.6088 13.5654 21.0904 13.5654 19.2175C13.5654 17.3445 11.794 15.8262 9.60887 15.8262C7.42374 15.8262 5.65234 17.3445 5.65234 19.2175C5.65234 21.0904 7.42374 22.6088 9.60887 22.6088Z" fill="black"/>
<path d="M16.3925 22.6088C17.9533 22.6088 19.2186 21.0904 19.2186 19.2175C19.2186 17.3445 17.9533 15.8262 16.3925 15.8262C14.8317 15.8262 13.5664 17.3445 13.5664 19.2175C13.5664 21.0904 14.8317 22.6088 16.3925 22.6088Z" fill="black"/>
<path d="M22.0448 22.6088C23.6056 22.6088 24.8709 21.0904 24.8709 19.2175C24.8709 17.3445 23.6056 15.8262 22.0448 15.8262C20.484 15.8262 19.2188 17.3445 19.2188 19.2175C19.2188 21.0904 20.484 22.6088 22.0448 22.6088Z" fill="black"/>
<path d="M2.82609 13.5651C4.38689 13.5651 5.65217 11.7937 5.65217 9.60862C5.65217 7.42349 4.38689 5.6521 2.82609 5.6521C1.26528 5.6521 0 7.42349 0 9.60862C0 11.7937 1.26528 13.5651 2.82609 13.5651Z" fill="black"/>
<path d="M2.82609 19.2174C4.38689 19.2174 5.65217 17.9521 5.65217 16.3913C5.65217 14.8305 4.38689 13.5652 2.82609 13.5652C1.26528 13.5652 0 14.8305 0 16.3913C0 17.9521 1.26528 19.2174 2.82609 19.2174Z" fill="black"/>
<path d="M28.2624 5.65217C30.1354 5.65217 31.6537 4.38689 31.6537 2.82609C31.6537 1.26528 30.1354 0 28.2624 0C26.3894 0 24.8711 1.26528 24.8711 2.82609C24.8711 4.38689 26.3894 5.65217 28.2624 5.65217Z" fill="black"/>
<path d="M28.2624 13.5651C30.1354 13.5651 31.6537 11.7937 31.6537 9.60862C31.6537 7.42349 30.1354 5.6521 28.2624 5.6521C26.3894 5.6521 24.8711 7.42349 24.8711 9.60862C24.8711 11.7937 26.3894 13.5651 28.2624 13.5651Z" fill="black"/>
<path d="M28.2624 19.2174C30.1354 19.2174 31.6537 17.9521 31.6537 16.3913C31.6537 14.8305 30.1354 13.5652 28.2624 13.5652C26.3894 13.5652 24.8711 14.8305 24.8711 16.3913C24.8711 17.9521 26.3894 19.2174 28.2624 19.2174Z" fill="black"/>
<path d="M34.8261 26.0001C36.3869 26.0001 37.6522 24.4818 37.6522 22.6088C37.6522 20.7359 36.3869 19.2175 34.8261 19.2175C33.2653 19.2175 32 20.7359 32 22.6088C32 24.4818 33.2653 26.0001 34.8261 26.0001Z" fill="black"/>
<path d="M41.6089 41.8261C43.794 41.8261 45.5654 40.3077 45.5654 38.4348C45.5654 36.5618 43.794 35.0435 41.6089 35.0435C39.4237 35.0435 37.6523 36.5618 37.6523 38.4348C37.6523 40.3077 39.4237 41.8261 41.6089 41.8261Z" fill="black"/>
<path d="M48.3925 41.8261C49.9533 41.8261 51.2186 40.3077 51.2186 38.4348C51.2186 36.5618 49.9533 35.0435 48.3925 35.0435C46.8317 35.0435 45.5664 36.5618 45.5664 38.4348C45.5664 40.3077 46.8317 41.8261 48.3925 41.8261Z" fill="black"/>
<path d="M34.8261 32.7826C36.3869 32.7826 37.6522 31.2643 37.6522 29.3913C37.6522 27.5183 36.3869 26 34.8261 26C33.2653 26 32 27.5183 32 29.3913C32 31.2643 33.2653 32.7826 34.8261 32.7826Z" fill="black"/>
<path d="M34.8261 38.4349C36.3869 38.4349 37.6522 37.1696 37.6522 35.6088C37.6522 34.048 36.3869 32.7827 34.8261 32.7827C33.2653 32.7827 32 34.048 32 35.6088C32 37.1696 33.2653 38.4349 34.8261 38.4349Z" fill="black"/>
<path d="M54.0448 26.0001C55.6056 26.0001 56.8709 24.4818 56.8709 22.6088C56.8709 20.7359 55.6056 19.2175 54.0448 19.2175C52.484 19.2175 51.2188 20.7359 51.2188 22.6088C51.2188 24.4818 52.484 26.0001 54.0448 26.0001Z" fill="black"/>
<path d="M54.0448 32.7826C55.6056 32.7826 56.8709 31.2643 56.8709 29.3913C56.8709 27.5183 55.6056 26 54.0448 26C52.484 26 51.2188 27.5183 51.2188 29.3913C51.2188 31.2643 52.484 32.7826 54.0448 32.7826Z" fill="black"/>
<path d="M54.0448 38.4349C55.6056 38.4349 56.8709 37.1696 56.8709 35.6088C56.8709 34.048 55.6056 32.7827 54.0448 32.7827C52.484 32.7827 51.2188 34.048 51.2188 35.6088C51.2188 37.1696 52.484 38.4349 54.0448 38.4349Z" fill="black"/>
<path d="M34.8261 19.2174C36.3869 19.2174 37.6522 17.9521 37.6522 16.3913C37.6522 14.8305 36.3869 13.5652 34.8261 13.5652C33.2653 13.5652 32 14.8305 32 16.3913C32 17.9521 33.2653 19.2174 34.8261 19.2174Z" fill="black"/>
<path d="M34.8261 13.5653C36.3869 13.5653 37.6522 12.047 37.6522 10.174C37.6522 8.30105 36.3869 6.78271 34.8261 6.78271C33.2653 6.78271 32 8.30105 32 10.174C32 12.047 33.2653 13.5653 34.8261 13.5653Z" fill="black"/>
<path d="M54.0448 19.2174C55.6056 19.2174 56.8709 17.9521 56.8709 16.3913C56.8709 14.8305 55.6056 13.5652 54.0448 13.5652C52.484 13.5652 51.2188 14.8305 51.2188 16.3913C51.2188 17.9521 52.484 19.2174 54.0448 19.2174Z" fill="black"/>
<path d="M54.0448 13.5653C55.6056 13.5653 56.8709 12.047 56.8709 10.174C56.8709 8.30105 55.6056 6.78271 54.0448 6.78271C52.484 6.78271 51.2188 8.30105 51.2188 10.174C51.2188 12.047 52.484 13.5653 54.0448 13.5653Z" fill="black"/>
<path d="M34.8261 6.78261C36.3869 6.78261 37.6522 5.26427 37.6522 3.3913C37.6522 1.51834 36.3869 0 34.8261 0C33.2653 0 32 1.51834 32 3.3913C32 5.26427 33.2653 6.78261 34.8261 6.78261Z" fill="black"/>
<path d="M54.0448 6.78261C55.6056 6.78261 56.8709 5.26427 56.8709 3.3913C56.8709 1.51834 55.6056 0 54.0448 0C52.484 0 51.2188 1.51834 51.2188 3.3913C51.2188 5.26427 52.484 6.78261 54.0448 6.78261Z" fill="black"/>
<path d="M60.2624 41.8261C62.1354 41.8261 63.6537 40.3077 63.6537 38.4348C63.6537 36.5618 62.1354 35.0435 60.2624 35.0435C58.3894 35.0435 56.8711 36.5618 56.8711 38.4348C56.8711 40.3077 58.3894 41.8261 60.2624 41.8261Z" fill="black"/>
<path d="M67.0436 41.8261C68.9166 41.8261 70.435 40.3077 70.435 38.4348C70.435 36.5618 68.9166 35.0435 67.0436 35.0435C65.1707 35.0435 63.6523 36.5618 63.6523 38.4348C63.6523 40.3077 65.1707 41.8261 67.0436 41.8261Z" fill="black"/>
<path d="M73.2597 26.0001C74.8205 26.0001 76.0858 24.4818 76.0858 22.6088C76.0858 20.7359 74.8205 19.2175 73.2597 19.2175C71.6989 19.2175 70.4336 20.7359 70.4336 22.6088C70.4336 24.4818 71.6989 26.0001 73.2597 26.0001Z" fill="black"/>
<path d="M73.2597 32.7826C74.8205 32.7826 76.0858 31.2643 76.0858 29.3913C76.0858 27.5183 74.8205 26 73.2597 26C71.6989 26 70.4336 27.5183 70.4336 29.3913C70.4336 31.2643 71.6989 32.7826 73.2597 32.7826Z" fill="black"/>
<path d="M73.2597 38.4349C74.8205 38.4349 76.0858 37.1696 76.0858 35.6088C76.0858 34.048 74.8205 32.7827 73.2597 32.7827C71.6989 32.7827 70.4336 34.048 70.4336 35.6088C70.4336 37.1696 71.6989 38.4349 73.2597 38.4349Z" fill="black"/>
<path d="M73.2597 19.2174C74.8205 19.2174 76.0858 17.9521 76.0858 16.3913C76.0858 14.8305 74.8205 13.5652 73.2597 13.5652C71.6989 13.5652 70.4336 14.8305 70.4336 16.3913C70.4336 17.9521 71.6989 19.2174 73.2597 19.2174Z" fill="black"/>
<path d="M73.2597 13.5653C74.8205 13.5653 76.0858 12.047 76.0858 10.174C76.0858 8.30105 74.8205 6.78271 73.2597 6.78271C71.6989 6.78271 70.4336 8.30105 70.4336 10.174C70.4336 12.047 71.6989 13.5653 73.2597 13.5653Z" fill="black"/>
<path d="M73.2597 6.78261C74.8205 6.78261 76.0858 5.26427 76.0858 3.3913C76.0858 1.51834 74.8205 0 73.2597 0C71.6989 0 70.4336 1.51834 70.4336 3.3913C70.4336 5.26427 71.6989 6.78261 73.2597 6.78261Z" fill="black"/>
</svg>
